<?xml version="1.0" encoding="UTF-8"?>
<svg id="_2" data-name=" 2" xmlns="http://www.w3.org/2000/svg" xmlns:xlink="http://www.w3.org/1999/xlink" version="1.1" viewBox="0 0 500.3 353.3">
  <defs>
    <style>
      .cls-1 {
        fill: url(#linear-gradient);
        stroke-width: 0px;
      }
    </style>
    <linearGradient id="linear-gradient" x1="0" y1="684.6" x2="500.3" y2="684.6" gradientTransform="translate(0 -508)" gradientUnits="userSpaceOnUse">
      <stop offset="0" stop-color="#0077e9"/>
      <stop offset="1" stop-color="#ffdc00"/>
    </linearGradient>
  </defs>
  <path class="cls-1" d="M1.5,242.7C32.6,71.7,116.8,51,116.8,51,164.7-25.5,243.7,5.6,252.8,9.5c9.1,3.9,12.9-2.6,36.3-6.5,23.3-3.9,36.1,19.9,57.2,24.8,21.2,4.9,55.2-12.8,75.7-12.2,37.8,1,56,19.2,68.3,44.2,3.4,7,10,29.1,10,29.1-4.7,3.5-13,7.5-23.9,11.2-1.3,10-4.9,27.1-14.5,38.4,0,0-6,3.6-6.6-4.2-.4-5.1-3.4-18.6-5.4-27.3-4.8.9-9.9,1.7-15,2.3-1.7,7.6-4.9,16.6-10.5,23.1,0,0-5,3-5.5-3.5-.3-3.4-2-11.5-3.5-18.3-4.9,0-9.9,0-15-.2-1.8,7.1-4.9,14.8-9.9,20.7,0,0-5,3-5.5-3.5-.3-3.4-1.9-11.2-3.4-18-5.1,0-10,.4-14.7,1.1-1.9,6.2-4.7,12.7-9.1,17.7,0,0-5,3-5.5-3.5-.2-2.2-.9-6.3-1.9-10.8-12.1,3.6-21.3,8.9-25.1,14.7-13.6,20.3-16.8,33.7-14.2,45.3,1.3,5.9,9,14.2,16.8,21.3,1.9-3.8,3.6-7.4,4.3-9.3,2-5.6,5.6-1.8,5.6-1.8,3.1,6.6,4,14.4,3.8,21.2,4.2,2.3,9.8,5.1,16.2,8.2,3-5.8,6.7-12.9,7.8-16,1.9-5.6,5.6-1.8,5.6-1.8,3.9,8.1,4.2,18.2,3.6,25.8,3.8,1.8,7.6,3.5,11.5,5.3,3.2-6,8-15.2,9.3-18.8,1.9-5.6,5.6-1.8,5.6-1.8,4.4,9.2,4.2,20.9,3.4,28.7,3.3,1.4,6.5,2.8,9.6,4.1,3.1-5.7,8.9-16.8,10.4-20.9,2-5.6,5.6-1.8,5.6-1.8,4.8,9.9,4.1,22.8,3.2,30.4,3.1,1.2,5.8,2.1,7.5,2.6,16.4,4.6-20.4,37.9-37.9,42.3s-71.2-21.2-93.1-18c-36.3,5.2-28.5,11.7-44,46.6-14.9,33.5-127.8,41.6-182.6,23.3C-10.2,312.6-1.1,256.9,1.5,242.7ZM466.3,55.8c3.2-3.7-5.4-20-12.3-20.5s6.9,26.8,12.3,20.5ZM297.8,45.5c6.4,0,11.7-5.2,11.7-11.7s0-1.5-.2-2.2l-20.8-4.7c-1.4,1.9-2.3,4.3-2.3,6.8,0,6.4,5.2,11.7,11.7,11.7h-.1Z"/>
</svg>