<?xml version="1.0" encoding="UTF-8"?>
<svg id="_2" data-name="2" xmlns="http://www.w3.org/2000/svg" xmlns:xlink="http://www.w3.org/1999/xlink" viewBox="0 0 500.33 353.27">
  <defs>
    <style>
      .cls-1 {
        fill: url(#linear-gradient);
        stroke-width: 0px;
      }

      .cls-2 {
        fill: #fff;
        font-family: Chalkduster, Chalkduster;
        font-size: 100.11px;
      }
    </style>
    <linearGradient id="linear-gradient" x1="0" y1="176.63" x2="500.33" y2="176.63" gradientUnits="userSpaceOnUse">
      <stop offset="0" stop-color="#aa009c"/>
      <stop offset="1" stop-color="#e90006"/>
    </linearGradient>
  </defs>
  <path class="cls-1" d="M1.49,242.7C32.58,71.7,116.78,50.97,116.78,50.97,164.71-25.45,243.73,5.64,252.8,9.52c9.07,3.89,12.95-2.59,36.27-6.47,23.32-3.89,36.09,19.93,57.25,24.82,21.16,4.9,55.25-12.77,75.72-12.21,37.75,1.03,56.01,19.15,68.29,44.2,3.42,6.99,10,29.12,10,29.12-4.66,3.48-13.03,7.54-23.89,11.21-1.3,10.04-4.86,27.14-14.52,38.37,0,0-5.98,3.58-6.57-4.2-.38-5.07-3.39-18.55-5.44-27.34-4.82.9-9.85,1.66-15.05,2.26-1.74,7.64-4.87,16.58-10.49,23.12,0,0-4.97,2.97-5.46-3.48-.26-3.43-1.96-11.49-3.51-18.31-4.93.11-9.94.05-15.02-.22-1.84,7.05-4.86,14.82-9.89,20.68,0,0-4.97,2.97-5.46-3.49-.26-3.38-1.91-11.25-3.44-18.01-5.08.06-10.01.43-14.72,1.05-1.88,6.2-4.73,12.67-9.06,17.71,0,0-4.97,2.97-5.46-3.49-.17-2.2-.94-6.35-1.88-10.84-12.13,3.57-21.27,8.89-25.13,14.69-13.56,20.32-16.84,33.67-14.25,45.34,1.33,5.95,8.99,14.25,16.78,21.28,1.92-3.8,3.62-7.36,4.3-9.29,1.95-5.57,5.62-1.79,5.62-1.79,3.15,6.55,3.95,14.39,3.84,21.16,4.17,2.3,9.75,5.13,16.16,8.25,3.04-5.77,6.67-12.89,7.75-15.96,1.94-5.56,5.62-1.78,5.62-1.78,3.9,8.11,4.18,18.2,3.63,25.8,3.78,1.75,7.64,3.53,11.53,5.28,3.22-6.02,7.99-15.19,9.26-18.8,1.94-5.55,5.61-1.77,5.61-1.77,4.42,9.18,4.21,20.92,3.38,28.67,3.29,1.44,6.49,2.81,9.57,4.11,3.08-5.73,8.94-16.82,10.36-20.88,1.95-5.56,5.62-1.78,5.62-1.78,4.77,9.9,4.14,22.78,3.17,30.41,3.15,1.18,5.75,2.09,7.54,2.6,16.39,4.65-20.38,37.93-37.9,42.28-17.51,4.35-71.19-21.17-93.14-18.04-36.27,5.18-28.5,11.66-44.04,46.63-14.89,33.51-127.84,41.59-182.65,23.33C-10.16,312.64-1.1,256.94,1.49,242.7ZM466.33,55.82c3.16-3.68-5.42-20.05-12.27-20.5-6.85-.46,6.89,26.75,12.27,20.5ZM297.81,45.47c6.44,0,11.66-5.22,11.66-11.66,0-.74-.09-1.46-.22-2.17l-20.84-4.67c-1.4,1.93-2.26,4.28-2.26,6.84,0,6.44,5.22,11.66,11.66,11.66Z"/>
  <text class="cls-2" transform="translate(60.99 180.88)"><tspan x="0" y="0">SWE</tspan><tspan x="6.97" y="90">ReX</tspan></text>
</svg>